<svg width="202" height="59" viewBox="0 0 202 59" fill="none" xmlns="http://www.w3.org/2000/svg"><g clip-path="url(#clip0)"><path d="M59.8825 23.8063C58.1585 19.7092 55.3821 16.1318 51.83 13.4305 48.2778 10.7293 44.074 8.99857 39.6374 8.41088 35.2008 7.82319 30.6864 8.39905 26.5441 10.0811 22.4017 11.7631 18.7762 14.4925 16.0287 17.9973 13.2812 21.5021 11.5077 25.6599 10.885 30.0564 10.2622 34.4529 10.812 38.9344 12.4795 43.0545 14.147 47.1745 16.874 50.7892 20.3887 53.5382 23.9034 56.2872 28.083 58.0746 32.5111 58.7223 31.9311 56.6491 31.3411 54.3578 30.8211 51.9275 32.3339 52.9009 33.9262 53.747 35.5813 54.457 35.5813 54.457 35.7013 56.5995 35.8613 58.9901 37.6496 59.0207 39.4362 58.8644 41.1916 58.5239 41.1462 58.2746 41.1462 58.0193 41.1916 57.77 41.4816 55.9151 42.2816 52.5723 42.4416 50.4198 43.595 49.3498 44.5734 48.1082 45.3418 46.7397L45.2818 47.1762C44.7317 51.4018 43.5817 55.9151 42.8817 57.1649 42.655 57.5786 42.3761 57.962 42.0516 58.3056 45.6716 57.4633 49.0636 55.8502 51.9924 53.5781 54.9212 51.3059 57.3168 48.4292 59.013 45.1473 60.7093 41.8653 61.6656 38.2568 61.8158 34.5717 61.9659 30.8867 61.3062 27.2133 59.8825 23.8063zM58.4124 27.5657C57.9724 27.9923 57.0624 28.2799 56.9123 26.9904 56.7623 25.7009 56.7223 24.7983 56.7223 24.7983 56.7223 24.7983 54.7922 21.3959 54.0722 21.3563 53.3522 21.3166 48.2419 24.7983 46.8918 26.3159 45.7218 27.5955 45.4918 27.5062 45.4918 29.7579 45.4918 31.4541 45.7118 37.862 45.5918 42.7621L37.4414 44.9146C34.8796 45.6438 32.2744 46.2137 29.641 46.6207L28.6409 40.8378H28.5009L25.9308 27.774C25.9308 27.774 22.1206 26.3457 20.7206 25.9588 20.0632 25.6735 19.3372 25.5808 18.6284 25.6915 17.9196 25.8023 17.2575 26.1118 16.7204 26.5837 16.1723 27.0597 15.7342 27.6471 15.4356 28.3061 15.1371 28.9651 14.9852 29.6802 14.9903 30.4027 15.2017 30.8637 15.3626 31.3459 15.4703 31.841 15.5203 32.3171 14.2702 32.2675 13.4702 32.2675 12.6702 32.2675 12.5502 30.8391 13.1802 29.1627 13.6717 27.8737 14.2809 26.632 15.0003 25.4529 15.5413 24.3997 16.2392 23.4333 17.0704 22.5862 17.0704 22.5862 17.2104 22.249 18.3204 22.3482 19.4305 22.4474 25.6008 22.7747 25.6008 22.7747L25.6508 20.523C32.3575 19.6045 39.1216 19.1603 45.8918 19.1938 45.8918 19.7989 45.8918 20.404 45.8918 21.0091 48.4562 19.8483 51.2175 19.1754 54.0322 19.0252 54.1828 19.0214 54.332 19.0548 54.4664 19.1223 54.6008 19.1898 54.7162 19.2894 54.8022 19.4121 55.1423 19.8386 57.2124 22.3879 57.4524 22.7549 58.1246 23.7078 58.7359 24.7017 59.2825 25.7307 59.0951 26.3822 58.8012 26.9988 58.4124 27.5558V27.5657z" fill="#fdc305"/><path d="M56.4628 21.4951C56.9329 22.0903 57.3429 22.616 57.4629 22.7747 58.1351 23.7277 58.7464 24.7215 59.293 25.7505 59.1027 26.3806 58.8124 26.9767 58.4329 27.5161 57.9929 27.9427 57.0829 28.2303 56.9329 26.9408 56.7829 25.6513 56.7229 24.7983 56.7229 24.7983 56.7229 24.7983 54.7928 21.3959 54.0727 21.3563 53.3527 21.3166 48.2424 24.7983 46.8924 26.3159 45.7223 27.5955 45.4923 27.5062 45.4923 29.7579 45.4923 31.2458 45.6623 36.3542 45.6223 40.8973 47.4324 41.0957 50.0925 41.5916 50.8926 42.7621 50.8926 42.7621 50.6026 35.64 58.703 39.3697 58.703 39.3697 58.983 29.6587 70.1635 32.1485 66.3628 27.7223 61.7035 24.0994 56.4628 21.4951z" fill="#f06351"/><path d="M45.9323 19.1938C45.9729 13.6973 45.5043 8.2087 44.5322 2.79724 44.5322 2.79724 44.3822 1.50773 43.6622 2.55918 43.068 3.81617 42.6636 5.15308 42.4621 6.5269 38.1871 6.25483 33.896 6.36771 29.6415 6.86415 28.8214 4.13635 27.4214 2.89643 26.7513 3.22377 26.0813 3.55111 26.0013 6.4773 26.0013 6.4773L25.6713 20.523C32.3846 19.6036 39.1554 19.1594 45.9323 19.1938z" fill="#f06351"/><path d="M45.3515 46.7397C45.4815 45.6784 45.5515 44.2698 45.5915 42.7125L37.4415 44.865C34.8809 45.611 32.2758 46.1974 29.6415 46.6207L30.7515 51.5804C30.7515 51.6895 30.7515 51.7986 30.8215 51.9077 32.3342 52.8811 33.9265 53.7272 35.5815 54.4371 38.0002 53.2903 40.3038 51.9186 42.4615 50.3404V50.4C43.6096 49.3352 44.5845 48.1005 45.3515 46.7397z" fill="#e55645"/><path d="M32.0016 16.0891C31.9516 15.9899 33.0016 16.7636 33.4116 17.0017 33.8216 17.2397 34.0216 17.4183 34.0216 17.5869 34.0216 17.7556 33.7616 17.9242 33.4016 17.9242 33.0416 17.9242 32.4816 17.8051 32.4016 17.6663 32.3216 17.5274 33.0016 17.6663 33.3416 17.6663H33.6316C33.0159 17.2195 32.4672 16.6885 32.0016 16.0891z" fill="#000"/><path d="M39.502 16.1982C39.502 16.1982 38.502 17.4679 38.412 17.5274 38.322 17.5869 38.2419 17.8647 38.6019 17.8151 39.0152 17.7539 39.4231 17.661 39.8219 17.5373 39.9319 17.4778 39.892 17.3389 39.702 17.3588 39.512 17.3786 39.022 17.4084 38.702 17.4679L39.5519 16.2081C39.5519 16.2081 39.582 16.0891 39.502 16.1982z" fill="#000"/><path d="M36.3617 22.2589C36.8253 22.0563 37.2084 21.7077 37.4517 21.267 37.7317 20.6123 37.4517 20.3643 37.0117 20.275 36.4064 20.1655 35.7817 20.2859 35.2617 20.6123 34.8717 20.9793 34.9217 21.3364 35.2617 21.6042 35.5995 21.867 35.9691 22.0869 36.3617 22.2589z" fill="#000"/><path d="M36.0016 23.5087C35.8868 23.7337 35.7308 23.9355 35.5416 24.1039 35.2568 24.3312 34.9067 24.4631 34.5416 24.4808 33.991 24.5344 33.4405 24.3784 33.0016 24.0444 32.8 23.9274 32.6206 23.7764 32.4716 23.598 32.3715 23.49 32.2486 23.4053 32.1116 23.35 32.1116 23.35 32.8616 27.4269 34.6816 28.0815 36.5016 28.7362 36.8416 27.3277 36.8916 26.9507 36.9525 25.8218 36.6666 24.7011 36.0716 23.7369 36.0716 23.4393 36.0516 23.6377 36.0016 23.5087z" fill="#f06351"/><path d="M34.3015 24.6395C33.8335 24.5728 33.384 24.4127 32.9801 24.1689 32.5763 23.9251 32.2263 23.6027 31.9515 23.2211 31.9269 23.1938 31.9133 23.1585 31.9133 23.1219 31.9133 23.0853 31.9269 23.05 31.9515 23.0227 31.9646 23.0095 31.9801 22.999 31.9973 22.9919 32.0145 22.9847 32.0329 22.981 32.0515 22.981 32.0702 22.981 32.0886 22.9847 32.1058 22.9919 32.1229 22.999 32.1385 23.0095 32.1515 23.0227 32.399 23.3671 32.7129 23.6593 33.0751 23.8823 33.4374 24.1054 33.8406 24.2549 34.2615 24.3221 34.5945 24.2973 34.9168 24.1945 35.2019 24.022 35.487 23.8496 35.7268 23.6125 35.9015 23.3302L36.0415 23.1417 36.1415 23.36C36.1415 23.36 36.5215 24.1138 37.1415 24.1535 37.7615 24.1932 38.2015 23.7369 38.7715 22.8739 38.7927 22.8423 38.8257 22.8204 38.8632 22.813 38.9007 22.8055 38.9397 22.8132 38.9715 22.8342 39.0034 22.8553 39.0254 22.888 39.0329 22.9252 39.0404 22.9624 39.0327 23.001 39.0115 23.0326 38.3449 24.0047 37.7149 24.4709 37.1215 24.4312 36.8922 24.4011 36.6726 24.3204 36.4788 24.1951 36.285 24.0698 36.1219 23.9031 36.0015 23.7071 35.8059 23.9781 35.5518 24.2025 35.2577 24.3638 34.9636 24.5251 34.6369 24.6193 34.3015 24.6395z" fill="#000"/><path d="M36.2616 37.9909C38.3327 37.9909 40.0116 36.3255 40.0116 34.2712 40.0116 32.2168 38.3327 30.5514 36.2616 30.5514 34.1905 30.5514 32.5116 32.2168 32.5116 34.2712 32.5116 36.3255 34.1905 37.9909 36.2616 37.9909z" fill="#fdc305"/><path d="M41.2316 31.2458 38.1016 32.5452 39.2516 26.9607 31.7516 36.6419 34.8816 35.3425 33.7316 40.937 41.2316 31.2458zM33.8416 35.0449 38.0016 29.6786 37.1916 33.6463 39.1916 32.8329 35.0016 38.2092 35.8116 34.2414 33.8416 35.0449z" fill="#111"/><path d="M32.4415 33.5868C33.0601 33.5868 33.5615 33.0894 33.5615 32.4758 33.5615 31.8622 33.0601 31.3648 32.4415 31.3648 31.823 31.3648 31.3215 31.8622 31.3215 32.4758 31.3215 33.0894 31.823 33.5868 32.4415 33.5868z" fill="#111"/><path d="M38.9619 37.614C39.3982 37.614 39.7519 37.2631 39.7519 36.8304 39.7519 36.3976 39.3982 36.0467 38.9619 36.0467 38.5256 36.0467 38.1719 36.3976 38.1719 36.8304 38.1719 37.2631 38.5256 37.614 38.9619 37.614z" fill="#111"/><path d="M39.9219 35.4615C40.1152 35.4615 40.2719 35.3061 40.2719 35.1143 40.2719 34.9226 40.1152 34.7672 39.9219 34.7672 39.7286 34.7672 39.5719 34.9226 39.5719 35.1143 39.5719 35.3061 39.7286 35.4615 39.9219 35.4615z" fill="#111"/><path d="M45.8822 20.9892C44.077 22.6034 42.3768 24.3295 40.792 26.1572 39.2133 27.9717 37.4318 29.6023 35.4817 31.0177 35.2617 30.4919 33.8516 29.5099 33.8516 29.5099 33.8516 29.5099 30.7115 27.3773 28.6514 25.7009 27.5377 24.7809 26.4886 23.7867 25.5112 22.7251L23.5111 22.616C26.3983 26.7991 30.628 29.8897 35.5117 31.3847 36.3717 31.2458 38.7919 29.5298 40.602 28.1311 42.7434 26.3247 44.7489 24.3654 46.6022 22.2688 47.1004 21.6816 47.4867 21.0094 47.7423 20.285 46.6023 20.6619 45.8822 20.9892 45.8822 20.9892z" fill="#f06351"/><path d="M65.2227 3.47176l-8.46 9.36384L55.5427 10.8616 63.6927.0 65.2227 3.47176z" fill="#fdc305"/><path d="M62.6531 17.1207 68.1931 13.0439 67.4131 9.33406 62.0131 14.1052 62.6531 17.1207z" fill="#fdc305"/><path d="M59.923 48.9716 66.053 52.1259 69.063 49.8048 62.373 47.077 59.923 48.9716z" fill="#fdc305"/><path d="M1.94995 5.92182 5.01995 2.58894 14.31 11.5163 13.09 13.7779 1.94995 5.92182z" fill="#fdc305"/><path d="M7.38003 16.1486 2.68003 13.0439.280029 16.8826 5.43003 19.2633 7.38003 16.1486z" fill="#fdc305"/><path d="M13.91 52.1259 9.35999 55.4489 12.16 59 16.18 55.0124 13.91 52.1259z" fill="#fdc305"/><path d="M25.9313 27.774C25.9313 27.774 22.1211 26.3457 20.721 25.9588 20.0636 25.6735 19.3377 25.5808 18.6289 25.6915 17.9201 25.8023 17.258 26.1118 16.7208 26.5837 16.1728 27.0597 15.7346 27.6471 15.4361 28.3061 15.1375 28.9651 14.9856 29.6802 14.9907 30.4027 15.2021 30.8637 15.3631 31.3459 15.4708 31.841 15.5208 32.3171 14.2707 32.2675 13.4707 32.2675 12.6706 32.2675 12.5506 30.8391 13.1807 29.1627 13.6722 27.8737 14.2814 26.632 15.0007 25.4529 9.55047 28.27.0 34.7771.0 34.7771 2.73182 34.6137 5.47292 34.6933 8.1904 35.0151 13.4407 35.5409 13.1907 39.6474 13.1907 39.6474 15.0373 39.1425 16.9192 38.7745 18.8209 38.5464 20.941 38.4075 21.091 40.6493 21.091 40.6493L21.6211 44.4781C22.4259 43.6145 23.3134 42.8305 24.2712 42.1372 25.5057 41.157 27.0776 40.6942 28.6514 40.8477L25.9313 27.774z" fill="#f06351"/><path d="M85.6642 41.6611C84.634 40.1469 84.1415 38.3356 84.2642 36.5129V29.0735C84.1343 27.2374 84.6194 25.4102 85.6442 23.8758 86.5709 22.6921 88.1542 22.1035 90.3942 22.1101 92.6342 22.1167 94.1509 22.6358 94.9442 23.6675 95.9115 24.9458 96.3836 26.5265 96.2742 28.1212V29.867H92.1342V27.9724C92.1286 27.4739 92.0852 26.9766 92.0042 26.4845 91.9542 26.1283 91.7893 25.7978 91.5342 25.5422 91.3767 25.4083 91.1939 25.3068 90.9965 25.2438 90.799 25.1808 90.5909 25.1574 90.3842 25.1752 90.0874 25.1313 89.7842 25.1791 89.5158 25.3122 89.2474 25.4453 89.0268 25.6573 88.8842 25.9191 88.6213 26.6157 88.5055 27.3585 88.5442 28.1014V37.5446C88.4986 38.2923 88.6322 39.0402 88.9342 39.7268 89.0785 39.9745 89.2926 40.175 89.5502 40.3037 89.8078 40.4323 90.0977 40.4835 90.3842 40.4509 90.6658 40.4904 90.9527 40.4407 91.2041 40.3089 91.4555 40.1771 91.6585 39.9699 91.7842 39.7169 92.0261 39.019 92.1313 38.2816 92.0942 37.5446V35.5607H96.2342V37.2767C96.3561 38.895 95.9226 40.5066 95.0042 41.8495 94.1242 42.9407 92.6042 43.4763 90.4442 43.4763 88.2842 43.4763 86.5942 42.8811 85.6642 41.6611z" fill="#111"/><path d="M101.915 22.3978H106.655L110.655 43.2283H106.715L106.005 38.6258H102.685L101.885 43.1986H97.8849L101.915 22.3978zM105.565 36.0071 104.305 27.6352l-1.25 8.3719H105.565z" fill="#111"/><path d="M113.725 25.5323H110.485V22.3978H121.205V25.5323H118.005V43.1986H113.715L113.725 25.5323z" fill="#111"/><path d="M129.616 22.3978H137.746V24.5602H132.546V31.4343H136.766v2.0533H132.546V41.1155h5.25V43.1986H129.616V22.3978z" fill="#444"/><path d="M140.157 22.3978h2L148.157 36.2154V22.3978H150.597V43.2283H148.727L142.727 29.0239V43.1986H140.247L140.157 22.3978z" fill="#444"/><path d="M153.828 22.3978H161.948V24.5602H156.748V31.4343H161.008v2.0533H156.788V41.1155H162.008V43.1986H153.828V22.3978z" fill="#444"/><path d="M164.358 22.3978H168.578C170.241 22.265 171.897 22.7259 173.248 23.6972 174.248 24.5602 174.738 25.9687 174.738 27.9228 174.738 30.568 173.875 32.1848 172.148 32.7734L175.148 43.1986H172.308L169.558 33.438H167.288V43.1986H164.358V22.3978zM168.358 31.3251C169.322 31.4176 170.285 31.1486 171.058 30.5713 171.372 30.2024 171.607 29.7736 171.748 29.3113 171.889 28.849 171.933 28.363 171.878 27.8832 171.898 27.2102 171.8 26.5389 171.588 25.8993 171.502 25.6635 171.369 25.4471 171.198 25.2631 171.026 25.0791 170.819 24.9312 170.588 24.828 169.939 24.5638 169.239 24.4453 168.538 24.4808H167.248v6.884L168.358 31.3251z" fill="#444"/><path d="M178.679 41.6611C177.723 40.0607 177.28 38.21 177.409 36.3542V29.4107C177.374 28.0708 177.543 26.7333 177.909 25.443 178.198 24.473 178.811 23.6297 179.649 23.0525 180.66 22.4481 181.83 22.1579 183.009 22.2192 183.771 22.1473 184.54 22.2414 185.262 22.495 185.984 22.7486 186.642 23.1555 187.189 23.6873 188.148 25.0205 188.602 26.6472 188.469 28.2799V29.0536h-2.75V28.4089C185.738 27.6377 185.677 26.8667 185.539 26.1076 185.448 25.6211 185.177 25.186 184.779 24.8875 184.26 24.5836 183.66 24.4419 183.059 24.4808 182.406 24.4254 181.756 24.6247 181.249 25.0363 180.834 25.4267 180.563 25.9435 180.479 26.5044 180.352 27.3215 180.295 28.1477 180.309 28.9743v7.7271C180.229 37.8756 180.432 39.0518 180.899 40.1335 181.17 40.4662 181.515 40.7329 181.906 40.9133 182.297 41.0937 182.725 41.183 183.156 41.1744 183.587 41.1658 184.011 41.0595 184.394 40.8636 184.778 40.6677 185.111 40.3874 185.369 40.0442 185.851 38.9001 186.059 37.661 185.979 36.4237V34.9556H183.319V32.9023H188.619V43.1986H186.809L186.519 40.808C186.29 41.6022 185.796 42.2962 185.119 42.777 184.442 43.2578 183.621 43.4973 182.789 43.4565 182.007 43.5249 181.22 43.3961 180.501 43.0823 179.783 42.7684 179.156 42.2795 178.679 41.6611z" fill="#444"/><path d="M194.699 35.8583 190.169 22.3978H192.889L196.099 32.4361 199.259 22.3978h2.75l-4.5 13.4605V43.1986H194.709L194.699 35.8583z" fill="#444"/></g><defs><clipPath id="clip0"><path d="M0 0h202v59H0z" fill="#fff"/></clipPath></defs></svg>