<svg width="36" height="50" viewBox="0 0 36 50" fill="none" xmlns="http://www.w3.org/2000/svg"><path d="M28.2034.0H28.008C27.6778.187081 27.415.473924 27.2571.819588 26.968 1.37738 26.7453 1.96735 26.5937 2.57732 26.5612 2.76073 26.4688 2.92811 26.331 3.05315 26.1932 3.17818 26.0179 3.25377 25.8326 3.26804 25.2658 3.36597 24.7288 3.59243 24.2626 3.93012 23.7965 4.26781 23.4135 4.7078 23.1429 5.21649 22.7708 5.87697 22.4526 6.5665 22.1914 7.27835 21.4611 9.17526 20.9006 11.134 20.2114 13.0464 19.8874 13.9175 19.872 13.9175 18.8949 13.9175 17.7274 13.9175 17.8097 13.7371 17.7943 15.0258 17.7943 15.433 17.9177 15.6392 18.3497 15.6186 18.4834 15.6186 18.684 15.5515 18.7354 15.7268 18.7869 15.9021 18.612 15.9794 18.5091 16.0825 17.8994 16.7029 17.1276 17.1388 16.2823 17.3402 15.3051 17.6031 14.3074 17.8093 13.356 18.1289 10.9131 18.9485 8.65543 20.0928 6.89657 22.0309 5.86814 23.2347 5.04455 24.6001 4.45886 26.0722 2.57143 30.5258 1.656 35.2165.946286 39.9536.612 42.1753.375429 44.4072.195429 46.6546.102857 47.7577.0 48.8763.0 50H17.1411C17.1696 49.7731 17.1283 49.5429 17.0229 49.3402 16.858 48.9289 16.5901 48.5672 16.2451 48.29 15.9 48.0128 15.4895 47.8295 15.0531 47.7577 14.6931 47.6753 14.652 47.567 14.8731 47.2835 15.2338 46.801 15.5103 46.2607 15.6909 45.6856 16.5291 43.2062 16.8531 40.6186 17.2594 38.0567 17.4889 36.0999 18.0894 34.2051 19.0286 32.4742 19.7611 31.2002 20.7382 30.0842 21.9034 29.1907 22.3303 28.866 22.3457 28.866 22.4177 29.4175 22.4691 29.7835 22.4794 30.1598 22.5051 30.5309 22.6595 32.9662 22.6285 35.4097 22.4126 37.8402 22.2184 39.7242 22.1926 41.6217 22.3354 43.5103 22.5399 45.7029 22.9304 47.8739 23.5029 50h6.84C30.2536 49.442 29.9973 48.9243 29.6078 48.5156 29.2184 48.1069 28.7143 47.8264 28.1623 47.7113 27.5177 47.6087 26.8587 47.6438 26.2286 47.8144 25.92 47.8866 25.7914 47.8144 25.7657 47.4794 25.5529 44.7505 25.7261 42.0051 26.28 39.3247 26.966 36.2304 27.4912 33.1025 27.8537 29.9536 27.9887 28.6819 28.3881 27.4528 29.0263 26.3454 29.6383 25.2526 30.1731 24.1186 30.7749 23.0206 31.0138 22.6214 31.1575 22.1723 31.195 21.7083 31.2325 21.2443 31.1626 20.7779 30.9909 20.3454 30.852 19.9794 30.7183 19.6082 30.5486 19.2577 30.0343 18.2526 29.52 17.2577 29.0469 16.2423 28.7949 15.7268 28.8514 15.6649 29.412 15.6495 30.2503 15.6495 30.2503 15.6495 30.2657 14.8041 30.2657 14.6907 30.2657 14.5773 30.2657 14.4639 30.2657 14.1082 30.132 13.9124 29.7514 13.9485 29.4943 13.9485 29.2371 13.9485 28.9697 13.9485 28.6149 13.9485 28.512 13.799 28.5994 13.433 28.7729 12.838 29.1142 12.306 29.5823 11.9009 30.0503 11.4958 30.6252 11.2349 31.2377 11.1495 32.3772 11.0505 33.5251 11.1252 34.6423 11.3711 34.7712 11.4118 34.9109 11.4001 35.0312 11.3383 35.1515 11.2766 35.2427 11.1699 35.2851 11.0412 35.4909 10.5258 35.7171 10.0103 35.9486 9.49484 36.001 9.40339 36.0242 9.29801 36.015 9.19293 36.0058 9.08785 35.9647 8.98812 35.8971 8.90722 34.2514 6.81443 32.4669 4.86082 30.0343 3.60825 29.9168 3.55754 29.8138 3.47814 29.7347 3.3773 29.6557 3.27646 29.6031 3.15738 29.5817 3.03093 29.444 2.29408 29.225 1.57487 28.9286.886598 28.7895.519904 28.5349.20865 28.2034.0V0z" fill="#000"/></svg>